<svg version="1.1" viewBox="0.0 0.0 960.0 720.0" fill="none" stroke="none" stroke-linecap="square" stroke-miterlimit="10" xmlns:xlink="http://www.w3.org/1999/xlink" xmlns="http://www.w3.org/2000/svg"><clipPath id="p.0"><path d="m0 0l960.0 0l0 720.0l-960.0 0l0 -720.0z" clip-rule="nonzero"/></clipPath><g clip-path="url(#p.0)"><path fill="#000000" fill-opacity="0.0" d="m0 0l960.0 0l0 720.0l-960.0 0z" fill-rule="evenodd"/><path fill="#779a6e" d="m455.7741 94.56273l3.4327393 0.7172699c-13.795532 2.4749908 -28.064575 3.751892 -42.279785 3.751892c-8.565704 0 -17.109894 -0.46504974 -25.503448 -1.4109039c-5.703308 -0.6384506 -11.589539 -1.4739532 -17.271332 -1.4739532c-3.8631897 0 -7.6510315 0.38622284 -11.223663 1.4739532c-5.6495056 1.6237183 -9.824768 4.681984 -14.247498 7.9136505l-36.84552 26.271103c-4.175232 3.058258 -8.597992 6.297821 -11.298981 10.073349c-6.381256 9.537369 -2.2059937 21.770416 -10.804016 30.22792c-9.57724 9.356079 -28.979248 8.45752 -41.999985 15.47261c-12.525757 7.0150757 -15.474243 20.146698 -17.196 32.20633c-2.4535065 16.54457 -4.6702576 33.640884 0.24749756 50.012054c5.897003 18.893433 21.61876 36.34445 21.123749 55.59259c-0.24749756 9.5373535 -3.9277496 19.791992 2.9485016 27.886932c5.9185333 6.770752 17.131424 8.851624 28.387405 8.851624c3.690979 0 7.392761 -0.22070312 10.911591 -0.57540894c6.9515686 -0.6148071 14.247498 -1.4897156 21.306702 -1.4897156c7.403534 0 14.527283 0.9616089 20.693298 4.185425c15.721741 8.457489 16.948486 28.430786 34.87625 33.10489c2.5503235 0.6621094 5.15448 0.9222107 7.790924 0.9222107c11.083771 0 22.823975 -4.697754 33.821655 -4.697754c2.8086243 0 5.5634155 0.30740356 8.253662 1.0798645c4.9069824 1.4345398 8.597992 4.138092 12.525757 6.8338013c14.7317505 9.356049 32.670258 17.08841 51.57724 19.066833c2.9700317 0.30740356 5.9830933 0.45715332 8.985382 0.45715332c16.625671 0 33.251373 -4.6268005 44.06613 -13.77005c7.371216 -6.116516 11.794006 -14.211456 20.14447 -19.610718c11.794006 -8.09494 28.979248 -9.174774 44.45349 -12.950317c20.887024 -5.2179565 39.062256 -16.008575 50.84552 -29.684052c1.9692383 -1.9784241 3.690979 -4.500702 6.8762207 -5.3992615c1.7540283 -0.63845825 3.7663574 -0.7330322 5.8432007 -0.7330322c0.8286133 0 1.6679688 0.01574707 2.5073242 0.01574707c28.010742 -0.18127441 48.14447 -23.38623 45.44348 -44.258087c-1.2267456 -8.276215 -4.9069824 -17.269714 0.24749756 -24.828674c3.4435425 -4.6819763 10.072266 -8.09494 12.525757 -13.312897c4.670288 -10.435928 -12.773254 -21.234436 -7.6187744 -31.843765c1.4743042 -3.2395477 4.9177856 -5.399246 7.1237793 -8.27623c8.598022 -11.515778 -3.1852417 -25.545944 -14.7317505 -35.445892c-43.72174 -37.77899 -95.79401 -75.022 -161.86621 -82.399666c-30.948547 -3.594246 -62.87628 0 -94.072266 -3.9568253z" fill-rule="evenodd"/><path fill="#b5c267" d="m455.7741 94.56273l3.4327393 0.7172699c-13.795532 2.4749908 -28.064575 3.751892 -42.279785 3.751892c-8.565704 0 -17.109894 -0.46504974 -25.503448 -1.4109039c-5.703308 -0.6384506 -11.589539 -1.4739532 -17.271332 -1.4739532c-3.8631897 0 -7.6510315 0.38622284 -11.223663 1.4739532c-5.6495056 1.6237183 -9.824768 4.681984 -14.247498 7.9136505l-36.84552 26.271103c-4.175232 3.058258 -8.597992 6.297821 -11.298981 10.073349c-6.381256 9.537369 -2.2059937 21.770416 -10.804016 30.22792c-9.57724 9.356079 -28.979248 8.45752 -41.999985 15.47261c-12.525757 7.0150757 -15.474243 20.146698 -17.196 32.20633c-2.4535065 16.54457 -4.6702576 33.640884 0.24749756 50.012054c5.897003 18.893433 21.61876 36.34445 21.123749 55.59259c-0.24749756 9.5373535 -3.9277496 19.791992 2.9485016 27.886932c5.9185333 6.770752 17.131424 8.851624 28.387405 8.851624c3.690979 0 7.392761 -0.22070312 10.911591 -0.57540894c6.9515686 -0.6148071 14.247498 -1.4897156 21.306702 -1.4897156c7.403534 0 14.527283 0.9616089 20.693298 4.185425c15.721741 8.457489 16.948486 28.430786 34.87625 33.10489c2.5503235 0.6621094 5.15448 0.9222107 7.790924 0.9222107c11.083771 0 22.823975 -4.697754 33.821655 -4.697754c2.8086243 0 5.5634155 0.30740356 8.253662 1.0798645c4.9069824 1.4345398 8.597992 4.138092 12.525757 6.8338013c14.7317505 9.356049 32.670258 17.08841 51.57724 19.066833c2.9700317 0.30740356 5.9830933 0.45715332 8.985382 0.45715332c16.625671 0 33.251373 -4.6268005 44.06613 -13.77005c7.371216 -6.116516 11.794006 -14.211456 20.14447 -19.610718c11.794006 -8.09494 28.979248 -9.174774 44.45349 -12.950317c20.887024 -5.2179565 39.062256 -16.008575 50.84552 -29.684052c1.9692383 -1.9784241 3.690979 -4.500702 6.8762207 -5.3992615c1.7540283 -0.63845825 3.7663574 -0.7330322 5.8432007 -0.7330322c0.8286133 0 1.6679688 0.01574707 2.5073242 0.01574707c28.010742 -0.18127441 48.14447 -23.38623 45.44348 -44.258087c-1.2267456 -8.276215 -4.9069824 -17.269714 0.24749756 -24.828674c3.4435425 -4.6819763 10.072266 -8.09494 12.525757 -13.312897c4.670288 -10.435928 -12.773254 -21.234436 -7.6187744 -31.843765c1.4743042 -3.2395477 4.9177856 -5.399246 7.1237793 -8.27623c8.598022 -11.515778 -3.1852417 -25.545944 -14.7317505 -35.445892c-43.72174 -37.77899 -95.79401 -75.022 -161.86621 -82.399666c-30.948547 -3.594246 -62.87628 0 -94.072266 -3.9568253z" fill-rule="evenodd"/><path fill="#8a7165" d="m548.8733 310.82254c-2.4642334 21.770416 -8.597961 43.359528 -18.42273 64.05011c-4.9177856 10.435913 -10.567261 20.327972 -17.195984 30.220032l-10.072266 14.755341c-3.6802673 5.036682 -6.6287537 10.435913 -9.5772705 15.472595c-5.4019775 10.435913 -10.072235 20.690552 -16.453491 30.40921c-6.1445007 9.710785 -13.515747 19.784119 -18.175232 31.299896c-4.917755 11.515778 -6.1445007 23.567566 -5.165283 35.264587c0.99002075 11.6970825 3.443512 23.031555 5.897003 34.00348l24.56726 -3.4208374c-3.443512 -10.6171875 -6.639496 -21.045288 -8.113739 -31.481201c-1.4742737 -10.254639 -1.4742737 -20.509247 1.9692383 -30.40921c2.9485168 -9.892059 9.093018 -19.965393 14.742493 -30.220032c2.7010193 -5.2179565 5.402008 -10.617218 7.6080017 -16.01648c2.4534912 -5.399231 4.6702576 -10.609314 6.6287537 -15.827301c2.2167664 -5.0366516 4.9177246 -10.081207 7.866272 -14.936615l8.845459 -15.29129c5.8862915 -10.435944 11.051514 -21.053162 14.979248 -31.84378c8.350525 -21.589111 13.020752 -43.540802 13.505005 -65.8472l-3.4327393 -0.18130493z" fill-rule="evenodd"/><path fill="#8a7165" d="m530.93475 295.7121c-5.4019775 21.770416 -10.309021 43.714233 -15.958496 65.303375c-5.6495056 21.770386 -12.278259 43.178223 -20.628754 64.231384c-3.938507 10.617218 -8.597992 20.871857 -13.515747 31.299896c-4.907013 10.262512 -10.072266 20.51715 -16.205994 30.590485c-3.1960144 5.217987 -5.897003 10.254639 -8.350494 16.18988c-2.2167664 5.580536 -3.938507 11.878326 -4.42276 17.994904c-0.7424927 12.051758 1.9584961 24.466064 7.123749 35.800537l22.834747 -6.2977905c-5.402008 -9.5373535 -8.350494 -19.429443 -8.350494 -29.329346c0 -4.8554077 0.98999023 -9.710785 2.4642334 -14.566162c1.4742737 -5.0445557 3.927765 -9.899963 6.381256 -15.11792c4.917755 -10.254639 9.824738 -21.045258 14.247498 -31.84375c4.1752625 -10.617218 7.8554993 -21.589142 11.299011 -32.37976c6.381256 -21.95169 11.546478 -43.722107 15.721771 -65.6738c4.175232 -21.943817 7.3604736 -43.89554 10.5564575 -66.02063l-3.195984 -0.18130493z" fill-rule="evenodd"/><path fill="#8a7165" d="m406.9027 303.08997l-3.195984 0.5359802c3.9277344 17.994873 10.556488 35.8006 19.15448 53.070312c4.1752625 8.45752 9.093018 17.096313 14.247498 25.372559c4.917755 8.276215 9.824768 16.371155 12.041504 24.828674c2.2059937 8.09491 2.2059937 16.72583 1.4742432 25.727234l-1.4742432 27.343048l-2.9484863 54.512756l24.30899 0.5438843l-1.9584961 -54.69406l-1.2267456 -27.350952c-0.49499512 -9.356079 -1.2267456 -18.88556 -4.6702576 -28.422913c-3.443512 -9.356079 -9.57724 -17.813599 -15.474243 -25.908539c-5.6495056 -8.09491 -11.546509 -15.8272705 -16.453491 -24.28479c-10.072266 -16.371155 -18.175262 -33.648773 -23.824768 -51.273193z" fill-rule="evenodd"/><path fill="#8a7165" d="m349.91116 355.26315l-2.9484863 0.8985596c7.618744 15.6539 22.350494 29.502777 41.763245 39.04016c9.57724 4.855377 19.649506 8.457489 29.226746 12.595612c9.082245 3.9568176 18.42276 8.276215 25.299011 13.494202c1.9584656 1.079834 3.4327393 2.3330994 4.4227295 3.7755127c1.2267456 1.0798645 1.7109985 2.5222778 2.2059937 3.7755432c0.49502563 2.7035828 0.24749756 6.4790955 0 10.798492l-1.2267456 24.466125l-2.4534912 49.113464l24.072235 0l-2.7009888 -49.113464l-1.2375183 -24.466125l-0.23672485 -6.2977905c-0.24749756 -2.1596985 -0.7425232 -4.674103 -1.4742432 -7.1963806c-0.99002075 -2.5222778 -2.464264 -5.2179565 -4.6702576 -7.1963806c-2.2059937 -1.9784241 -4.42276 -3.7755432 -6.876251 -5.3992615c-9.340515 -5.753937 -19.897003 -9.710754 -29.969269 -13.312897c-10.072235 -3.5942383 -20.381226 -6.6524963 -29.72174 -10.435913c-18.906982 -7.732361 -34.133728 -19.784119 -43.474243 -34.53946z" fill-rule="evenodd"/><path fill="#8a7165" d="m471.5018 246.95197c-11.546478 24.292694 -4.917755 50.737183 -2.7009888 76.46445c2.7009888 35.083313 -3.443512 70.34003 -10.814758 105.24994c-1.7109985 8.993469 -3.6802368 17.986969 -6.381256 26.807068c-2.4534912 7.5510864 -5.649475 15.291321 -6.3919983 23.023682c-1.2267456 9.718658 0.24749756 19.610718 0.7425232 29.502777c0.97924805 16.01648 -1.2267456 32.025024 -0.49502563 47.86023c0.49502563 11.334473 2.7010193 23.031555 7.866272 33.286194c9.9216 1.0562134 20.01538 1.4818115 29.850891 1.4818115c1.8508606 0 3.690979 -0.01574707 5.520355 -0.047302246c-2.9484863 -12.233032 -4.6702576 -24.28479 -4.1860046 -36.699158c1.2375183 -13.8567505 -12.030762 -26.988342 -8.102997 -40.66382c4.6702576 -14.392761 1.7217407 -29.684052 0 -44.076813c-0.7317505 -8.812225 0 -17.632294 0.98999023 -26.263214c2.7010193 -26.807098 5.886261 -53.43289 8.58725 -80.058685c1.2375183 -11.515778 2.464264 -23.031555 1.9692688 -34.547333c-1.2267761 -25.364655 -11.794006 -51.454468 -2.2059937 -75.92058l-14.247528 -5.399246z" fill-rule="evenodd"/><path fill="#bcce78" d="m476.20972 79.255226c-8.28595 0 -16.70102 0.70939636 -24.857819 1.4581909c-13.020752 1.4345474 -26.030731 2.6956863 -37.092987 7.9136505c-9.5772705 4.674095 -16.453491 11.870476 -24.30899 18.168282c-15.969269 12.595627 -38.233673 22.062057 -60.842438 22.062057c-4.530365 0 -9.071472 -0.37834167 -13.580322 -1.1902008c-5.4019775 -0.8985596 -10.567261 -2.3409882 -16.216736 -2.6956863c-0.36587524 -0.01576233 -0.7317505 -0.023643494 -1.1083984 -0.023643494c-10.879303 0 -21.005371 5.0760803 -28.613373 10.81427c-9.824738 7.1963654 -17.927734 16.915024 -17.927734 27.350952c0 9.174789 6.6287537 17.62442 8.597992 26.980484c3.6802368 15.47261 -5.401993 30.945206 -9.824738 46.23651c-4.42276 15.299194 -1.721756 34.728622 16.700989 42.106277c-7.123749 1.7971191 -7.123749 9.710785 -3.9277344 14.747467c6.628723 10.798492 21.123749 18.530853 36.84549 19.791992c7.360504 0.71725464 17.43274 1.2611389 18.659485 6.8338013c0.49502563 2.7035522 -1.2267456 5.399231 -3.4327393 7.5589294c-5.15448 6.1165466 -11.299011 12.051788 -14.494995 18.712158c-2.9485168 6.8338013 -3.1960144 14.928741 2.4534912 20.690582c5.897003 5.935211 15.969269 7.9136353 25.546509 9.52948c4.8854675 0.6463318 9.96463 1.2374878 14.9039 1.2374878c4.7563477 0 9.372803 -0.5438843 13.591095 -2.1360474c11.546509 -4.4928284 15.721741 -15.110046 26.278229 -20.509277c14.495026 -7.732361 36.11377 -2.6956787 52.072266 -9.174805c10.319763 -4.319397 16.948486 -12.950317 26.041504 -18.712128c9.36203 -5.8958435 21.586456 -8.449646 33.8432 -8.449646c3.8093567 0 7.618744 0.24435425 11.352783 0.71728516c15.711029 2.340973 30.206024 8.09491 42.97928 15.110016l-5.8970337 0.8985596c22.598022 3.6021118 29.969238 24.473969 46.42273 36.163147c9.006958 6.471222 21.403564 9.876312 33.67102 9.876312c5.800171 0 11.568054 -0.75668335 16.927002 -2.3173523c16.948486 -5.036682 29.474243 -17.632294 31.195984 -31.126495c0.7424927 -7.5589294 -1.2267456 -16.008575 3.196045 -22.668976c2.9484863 -4.319397 8.597961 -8.276215 7.8554688 -13.131592c-0.97924805 -4.855377 -8.350525 -7.55896 -11.783264 -11.878357c-3.690979 -4.855377 -2.4642334 -11.153198 1.2267456 -16.18988c3.4327393 -5.2179565 8.834778 -9.174774 13.01001 -13.848877c6.392029 -7.55896 9.824768 -16.552444 11.299011 -25.191254c4.670227 -25.727234 -5.649475 -52.715607 -27.257507 -72.681015c-3.690979 -3.4208527 -7.866272 -6.84169 -10.319763 -10.617218c-4.9069824 -7.3776703 -4.4227295 -17.813599 -14.0 -21.951706c-4.670227 -2.3330994 -11.051453 -2.3330994 -15.474243 -4.855377c-6.14447 -3.239563 -6.14447 -10.073357 -7.6187134 -15.6538925c-3.6802979 -12.769035 -18.659546 -23.386253 -35.85553 -25.183372c-2.388916 -0.26010895 -4.8101196 -0.3704605 -7.2421265 -0.3704605c-11.567993 0 -23.458862 2.4434586 -34.87622 2.4434586c-4.390503 0 -8.705627 -0.36257935 -12.902405 -1.3557281c-10.072205 -2.5222778 -17.680237 -8.094933 -27.257477 -11.515778c-8.7378845 -3.0030823 -18.261322 -3.9725876 -27.95694 -3.9725876z" fill-rule="evenodd"/><path fill="#8a7165" d="m478.13068 329.17264l0 0c0.24749756 4.138092 0.7424927 8.09491 1.2267456 12.414337c0.24749756 4.138092 0.24749756 8.09491 0 12.414337c-0.48425293 4.319397 -0.48425293 8.820068 -0.97924805 12.7769165c-0.97924805 4.319397 -2.7010193 8.276215 -3.927765 12.414337c-1.2267456 3.7755127 -2.2167358 7.9136353 -3.4434814 11.689178c-1.2267456 3.7834167 -2.4535217 7.5589294 -3.6802673 11.697052c-1.2267456 3.9568176 -3.4434814 8.09494 -4.4227295 12.233063l-2.9485168 12.595612c-0.97924805 4.1381226 -1.4742432 8.45752 -2.4534912 12.414337c-0.99002075 4.1381226 -1.4742432 8.09494 -2.7009888 12.233063c-0.7425232 1.9783936 -0.99002075 3.9568176 -1.7217712 5.9352417c-0.49499512 2.1596985 -1.4742432 4.138092 -1.9692383 6.116516c-1.2267456 4.1381226 -2.2059937 8.638794 -2.4534912 12.7769165c-0.49502563 4.319397 0 8.63092 0 12.587738c0 4.319397 -0.7317505 8.45752 -0.7317505 12.595612c0 4.3194275 1.2267456 8.45752 1.2267456 12.414368c0.23672485 4.1381226 -0.49499512 8.276184 -0.24749756 12.595581c0.24749756 3.7755737 0.97924805 7.3776855 1.2267456 11.334534c0.24749756 3.5942383 0.49499512 7.3776245 0.97924805 11.153198c0.49499512 3.6021118 1.4742432 7.3776245 1.9692383 10.971924c0.7317505 3.6021118 0.97924805 7.558899 1.7217712 11.161072l1.9584961 10.971863c0 0.33892822 0.49499512 0.5202637 1.0115051 0.5202637c0.5811157 0 1.2052307 -0.22857666 1.2052307 -0.7015381c0 -4.1381226 -0.49499512 -8.09491 -1.2267456 -12.414307c-0.24749756 -4.1381226 -1.2375183 -8.094971 -1.7217407 -12.233093c-0.7425232 -3.956787 -0.49502563 -8.09491 -0.7425232 -12.233032c-0.24749756 -4.1381226 -0.97924805 -8.09491 -0.97924805 -12.233032c-0.24749756 -4.319397 -0.24749756 -8.276245 -0.49499512 -12.595642c0 -4.319397 0.24749756 -8.276245 0.24749756 -12.595612c0 -4.3115234 -0.24749756 -8.276245 0 -12.587738c0 -4.3194275 0.7425232 -8.276245 0.97924805 -12.595642c0.24749756 -3.9568176 0 -8.276215 1.2375183 -12.414337c1.2267456 -3.9568176 3.9277344 -7.55896 5.402008 -11.697052c1.2267456 -3.9568481 2.2059937 -8.276245 3.4327393 -12.233063c1.2267456 -4.1381226 2.4642334 -8.09494 3.4434814 -12.414337c0.97924805 -4.1381226 1.7217712 -8.09494 2.4535217 -12.233032c0.7424927 -3.9568481 1.2267456 -8.09494 1.7217407 -12.051788c0.7317505 -4.138092 1.9584961 -8.09491 2.9484863 -12.233032c0.7317505 -3.9647217 0.97924805 -8.09494 2.2060242 -12.059631c1.2267456 -4.4928284 2.2167358 -8.9935 2.9484863 -13.494202c0.7424927 -4.492798 1.2267456 -9.174774 1.2267456 -13.667603c0 -5.036682 -0.97924805 -9.718658 -1.7217407 -14.392731c-0.7317505 -5.217987 -1.463501 -9.899963 -2.2059937 -14.936615z" fill-rule="evenodd"/><path fill="#8a7165" d="m500.41702 448.7792c-0.08609009 0 -0.15066528 0.015777588 -0.18295288 0.03942871c-1.710968 2.1596985 -2.9484863 4.319397 -4.175232 6.297821c-1.2267456 2.1596985 -1.9584961 4.5006714 -3.1852417 6.6524963c-1.2375183 2.1596985 -3.1960144 3.9646912 -4.42276 6.297821c-1.2267456 2.1596985 -2.464264 4.138092 -3.6910095 6.2977905c-1.4742432 1.9784241 -2.7009888 4.1381226 -4.175232 6.479126c-1.7109985 2.1596985 -3.4327393 3.9568176 -4.6595154 6.2977905c-1.2374878 2.1596985 -2.7009888 4.319397 -3.938507 6.471222c-1.710968 2.3410034 -2.9377136 4.319397 -4.175232 6.4790955c-1.2267456 2.3410034 -1.2267456 4.8554077 -1.9584961 7.1963806c-0.7424927 2.5222778 -2.2167664 4.855377 -2.2167664 7.1963806c-0.23672485 2.5222778 0.24749756 5.036682 0.24749756 7.19635c0 2.5222778 0.24752808 4.8554077 0.24752808 7.196411c0.49499512 2.3410034 0.73172 4.8632812 0.97924805 7.0150757c0.24749756 2.3410034 1.2267456 4.5006714 1.4742432 7.022949c0.7424927 2.1518555 0.7424927 4.6741333 1.2267456 7.196411c0.7424927 2.5144043 1.7217407 4.8553467 2.7009888 7.369751c0.99002075 2.7035522 2.2167664 4.682007 2.2167664 6.841675c0.49499512 1.9784546 0.49499512 4.1381226 0.49499512 6.4712524c0 2.5222778 0.48425293 5.399231 0.7317505 8.276184c0 2.8848877 0.7317505 5.9431763 1.9692383 9.001404c-0.98999023 -2.7035522 -1.2374878 -5.2179565 -1.4742432 -7.55896c0 -2.5144043 0.23675537 -4.8553467 0.7317505 -7.0150757c0.7424927 -2.5222778 0.49499512 -4.682007 0.7424927 -7.0150757c0.23675537 -2.159729 0.7317505 -4.5006714 0.23675537 -7.0150757c-0.48425293 -2.159729 -1.4742432 -4.5007324 -1.7109985 -6.6604004c0 -2.3410034 -0.49499512 -4.5006714 -0.49499512 -6.8338013c0 -2.3410034 0.97924805 -4.8632812 0.7317505 -7.3776855l-0.7317505 -7.19635c-0.24749756 -2.159729 -0.7317505 -4.682007 -1.2267456 -7.0150757c-0.24749756 -2.159729 -0.7425232 -4.682007 -1.2267456 -6.841675c-0.24749756 -2.33313 0 -4.492859 0 -6.833832c0 -2.1596985 0.4842224 -4.319397 0.97924805 -6.2977905c0.7424927 -1.9784241 0.97924805 -4.3194275 2.2059937 -6.297821c0.98999023 -1.9784241 2.9484863 -3.9568176 4.1860046 -6.116516c1.2267456 -2.1596985 1.9584961 -4.500702 3.1852417 -6.652527c1.2267456 -2.340973 3.6910095 -4.138092 4.917755 -6.1243896c1.2267456 -1.9784241 2.2059937 -3.9568481 2.9484863 -5.7539673c0.97924805 -2.1596985 2.4535217 -3.9568176 3.4327698 -5.935211c0.98999023 -1.9784241 1.4742432 -3.9568481 2.4534912 -6.1165466c0.98999023 -1.9783936 2.2167358 -3.7834167 3.443512 -5.7618103l2.7009888 -6.1165466c0.21520996 -0.30740356 -1.0438232 -0.75668335 -1.5388184 -0.75668335zm-24.491943 139.29282c0 0.08673096 0.053833008 0.13397217 0.08609009 0.13397217c0.032287598 0 0.032287598 -0.04724121 -0.08609009 -0.13397217z" fill-rule="evenodd"/><path fill="#779a6e" d="m368.3344 146.38121c-0.7317505 0.18128967 -2.2059937 0.5359955 -2.9484863 0.71728516l0 0.18127441c0.98999023 -0.18127441 2.2167358 -0.3625641 2.9484863 -0.8985596z" fill-rule="evenodd"/><path fill="#ffffff" fill-opacity="0.1116" d="m388.03622 255.85901c-5.8647156 0 -11.847809 1.0404358 -17.249817 2.7902527c-3.9277344 1.0798645 -7.607971 2.6957092 -11.051483 4.4928284c-8.834747 0.9064331 -17.43274 2.7035522 -25.299011 5.580536c-7.3712463 2.6956787 -14.247498 6.4790955 -18.42273 11.697052c-4.42276 5.2179565 -5.402008 11.870483 -0.97924805 17.08844c3.9277344 4.855377 12.030731 7.377655 19.897003 8.09494c2.4427185 0.22857666 4.9284973 0.3152771 7.4573364 0.3152771c5.32666 0 10.782471 -0.37045288 16.119904 -0.49658203c4.6702576 0 10.803986 0.8985901 11.794006 4.1381226c0.4842224 2.3410034 -1.2267456 4.319397 -3.1960144 6.116516c-6.381256 6.297821 -12.773254 12.7769165 -18.917755 19.074738c-3.4327393 3.4129639 -6.876251 7.913666 -3.1852417 11.153198c1.5603333 1.3557434 4.1106873 1.8050232 6.8332214 1.8050232c1.9907532 0 4.067627 -0.24435425 5.940033 -0.5438843c18.659485 -3.6021118 37.57724 -11.697052 43.72174 -25.191254c2.2059937 -4.855377 2.7010193 -10.254639 5.6495056 -14.928741c7.6080017 -12.595612 28.73175 -16.915009 47.402008 -19.074707c4.261322 -0.41775513 8.770172 -0.7803345 13.225189 -0.7803345c7.0914917 0 14.010773 0.9222107 19.445038 4.019867c5.402008 3.4208374 8.834747 8.638824 14.7317505 11.6970825c4.9715576 2.6011047 10.750183 3.2710571 16.840881 3.2710571c6.3704834 0 13.085327 -0.7330322 19.58496 -0.7330322c2.3028564 0 4.5841675 0.08670044 6.8009033 0.33892822c11.051514 1.2611389 20.876282 5.9352417 30.948486 9.537384c6.1552734 2.143921 13.106873 3.7124634 19.735596 3.7124634c4.4873047 0 8.823975 -0.71725464 12.687195 -2.459198c1.4742432 -0.71728516 2.9484863 -1.6158447 3.690979 -2.6957092c1.2267456 -2.1596985 -0.49499512 -4.6740723 -2.2167358 -6.6524963c-11.051514 -12.7769165 -30.453491 -21.770416 -51.329773 -23.74884c-3.6479492 -0.30740356 -7.2958984 -0.40985107 -10.954651 -0.40985107c-8.318176 0 -16.657959 0.54385376 -24.943848 0.54385376c-5.5096436 0 -10.986969 -0.24435425 -16.421234 -1.0325623c-15.474243 -1.9862976 -29.72174 -8.457489 -44.948486 -10.435913c-14.979248 -2.1596985 -32.175262 0 -45.196014 -6.297821c-4.1752625 -2.1596985 -7.618744 -5.036682 -12.278259 -6.841675c-4.7993774 -2.1912231 -10.3089905 -3.1449585 -15.915436 -3.1449585z" fill-rule="evenodd"/><path fill="#ffffff" fill-opacity="0.1116" d="m474.12286 100.545425c-11.417389 0 -22.856262 3.2395477 -30.388947 9.671356c-3.6802368 3.0582657 -6.628723 6.6525116 -9.824738 9.892059c-10.556488 9.923584 -28.053802 15.945526 -45.30362 15.945526c-4.0138245 0 -8.027649 -0.33103943 -11.923126 -1.0089111c-3.088379 -0.42562866 -6.488861 -1.3005524 -9.717133 -1.3005524c-0.87164307 0 -1.7217712 0.063064575 -2.5611267 0.22070312c-6.3919983 0.8985596 -10.803986 5.399246 -13.9999695 9.537369c-7.866272 9.174789 -15.721771 18.530853 -23.340515 27.886932c-0.48425293 0.5359802 -0.97924805 1.2532654 -1.2267456 1.7971191c-5.402008 7.1963806 -13.257507 14.211472 -24.072266 15.47261c-4.659485 0.7172699 -9.824738 0.18128967 -14.0 1.4345398c-7.123749 1.8050079 -12.030731 6.841675 -12.762482 12.414337c-0.49499512 5.580536 2.2059937 11.153198 6.6287537 15.291306c10.760956 12.051773 31.475769 16.938675 51.738647 16.938675c3.335907 0 6.6502686 -0.12611389 9.910828 -0.3862152c10.319763 -0.8985596 21.123749 -2.695694 29.969269 -7.015091c9.082245 -4.319397 15.710999 -11.153198 16.700989 -18.88556c0 -1.2611389 0 -2.8848572 1.2267456 -3.9647064c1.2267456 -1.6158295 3.927765 -2.3330994 6.6287537 -2.6956787c12.041504 -2.1596985 24.56726 -3.956833 35.618744 -7.9136505c11.051514 -4.1381073 20.876251 -10.979797 23.824768 -20.154572c1.2267456 -4.1381226 0.73172 -8.9935 3.9277344 -12.414337c2.9485168 -3.4129639 8.597992 -5.217972 14.0 -6.1165314c6.0799255 -1.1665497 12.267487 -1.7340698 18.358185 -1.7340698c3.249817 0 6.4780884 0.16552734 9.641815 0.4729309c12.041504 1.4424286 23.093018 4.863266 34.39203 7.55896c7.263611 1.5054779 15.140625 2.711441 22.834717 2.711441c4.282837 0 8.50116 -0.37045288 12.536499 -1.2690277c11.299011 -2.3409882 21.360474 -10.073334 21.12378 -18.893433c-0.24749756 -7.1963806 -7.6187744 -13.494186 -16.464294 -16.552452c-9.082214 -3.2395477 -19.15448 -3.7755356 -28.979248 -3.7755356c-1.3773804 0 -2.765564 0 -4.1536865 0c-10.814758 0 -21.963135 -0.27587128 -30.238281 -5.217964c-4.1752625 -2.5222778 -7.1237793 -6.1165237 -10.804016 -8.993492c-7.4465637 -5.99041 -18.368958 -8.954086 -29.302063 -8.954086z" fill-rule="evenodd"/><path fill="#ffffff" fill-opacity="0.1116" d="m634.3468 189.20596c-14.462769 0 -26.7948 9.088074 -39.54651 14.928726c-11.740234 5.4228973 -25.63263 8.173752 -39.578796 8.173752c-10.567261 0 -21.177551 -1.576416 -30.916199 -4.760788c-5.4020386 -1.7971344 -11.051514 -4.3115234 -16.453522 -6.2899323c-13.2682495 0.7172699 -26.525726 1.7971191 -39.54648 3.4129486c-11.051514 1.2611389 -22.598022 2.8769836 -31.196014 8.27623c-8.597992 5.2179565 -12.278229 15.291306 -5.402008 21.770416c4.917755 4.855377 13.752502 6.116516 21.866272 6.116516c16.205994 0 31.927734 -4.5006866 48.133728 -6.4790955c2.335144 -0.2679901 4.6056824 -0.48869324 6.8547363 -0.48869324c2.2382812 0 4.444275 0.22070312 6.6610107 0.8512726c6.3812866 2.1596985 9.824768 7.1963654 14.484253 11.334488c11.051514 9.356064 29.474243 11.697067 46.186035 13.312881c2.119873 0.16552734 4.3043823 0.36257935 6.467285 0.36257935c2.5718994 0 5.1222534 -0.28375244 7.532715 -1.2611389c6.628723 -2.6956787 7.8554688 -9.892044 13.752441 -13.8567505c2.4212646 -1.6552429 5.6279907 -2.4119263 8.899353 -2.4119263c6.3166504 0 12.902344 2.8296814 14.6779175 7.448593c1.4742432 4.5006866 -0.97924805 9.182663 -0.24749756 13.856766c0.97924805 6.297821 7.866272 11.6970825 15.969238 14.211456c7.85553 2.5222778 17.196045 2.8769836 25.783264 3.239563c0.49499512 0.01574707 0.98999023 0.023651123 1.4957886 0.023651123c6.1660156 0 13.591064 -1.0956116 14.720947 -5.4229126c0.7317505 -2.1596985 -0.49499512 -3.9568176 -1.2267456 -5.9352417c-2.4534912 -7.377655 2.4534912 -15.110016 3.6802368 -22.66896c2.2167969 -14.574036 -9.082214 -27.705658 -19.896973 -39.40271c-7.3604736 -8.09494 -16.700989 -17.08844 -29.72174 -18.16829c-1.1514282 -0.11824036 -2.3028564 -0.17340088 -3.4327393 -0.17340088z" fill-rule="evenodd"/><path fill="#8a7165" d="m424.31262 564.1089c-37.579956 0 -71.01291 12.339172 -92.30246 31.481995c-5.458313 -0.90478516 -11.221466 -1.4893188 -17.138916 -1.4893188c-40.27234 0 -72.933945 22.601807 -72.933945 50.467163l464.4361 0c0 -17.70935 -20.749634 -32.066467 -46.344055 -32.066467c-11.8349 0 -22.674377 3.0828857 -30.817688 8.188782c-12.374878 -15.846436 -36.507385 -26.589478 -64.25433 -26.589478c-15.291321 0 -29.432922 3.2963257 -41.117188 8.826721c-20.363922 -23.290588 -57.334137 -38.819397 -99.52753 -38.819397z" fill-rule="evenodd"/></g></svg>