<svg version="1.1" viewBox="0.0 0.0 960.0 720.0" fill="none" stroke="none" stroke-linecap="square" stroke-miterlimit="10" xmlns:xlink="http://www.w3.org/1999/xlink" xmlns="http://www.w3.org/2000/svg"><clipPath id="p.0"><path d="m0 0l960.0 0l0 720.0l-960.0 0l0 -720.0z" clip-rule="nonzero"/></clipPath><g clip-path="url(#p.0)"><path fill="#000000" fill-opacity="0.0" d="m0 0l960.0 0l0 720.0l-960.0 0z" fill-rule="evenodd"/><path fill="#516d5d" d="m653.5755 143.93646c-0.5307617 -0.11231995 -1.1039429 -0.10064697 -1.6523438 0.115722656c-46.182556 18.382248 -75.35303 49.837814 -103.02515 81.21156c-31.324585 35.25453 -55.44867 72.1989 -71.703186 113.03563c-32.489594 81.47809 -49.62433 168.3992 -3.443756 252.4303c0.9609375 1.765625 2.6505737 2.7879639 4.508209 3.1810303c5.440155 1.151123 12.6874695 -2.7002563 9.741058 -7.811157c-44.16327 -80.77875 -27.092194 -167.51389 4.102936 -246.0416c15.161621 -38.47522 34.67737 -74.56653 64.027954 -108.21109c26.355957 -30.854477 55.46057 -64.750534 99.3927 -84.04111c2.1280518 -0.8128357 0.2630005 -3.401352 -1.9484253 -3.8692932z" fill-rule="evenodd"/><path fill="#bcce78" d="m670.4215 104.98258c-29.513794 0.63191223 -49.38446 6.041603 -68.77869 14.666336c-17.013062 7.798088 -32.999268 17.100502 -42.907654 30.991798c-11.533691 13.30806 -21.442078 27.199356 -26.631592 43.329117c-5.739929 17.840485 -6.367798 36.697464 -1.5949707 61.308823c31.217773 -0.2930603 51.372437 -5.646286 68.77869 -14.666321c19.001038 -7.4027863 33.47101 -18.566849 44.611633 -30.65297c11.533752 -13.30806 19.738098 -27.538193 25.006226 -43.91234c5.661255 -17.5961 7.993164 -36.114243 1.5163574 -61.064445z" fill-rule="evenodd"/><path fill="#8a7165" d="m431.11343 536.79095c-34.739075 0 -65.644684 16.526733 -85.32483 42.1662c-5.045685 -1.211853 -10.373169 -1.994812 -15.843292 -1.994812c-37.227966 0 -67.4205 30.2724 -67.4205 67.594604l429.32693 0c0 -23.719543 -19.18103 -42.949158 -42.840637 -42.949158c-10.940247 0 -20.960266 4.1291504 -28.488037 10.967957c-11.439331 -21.224365 -33.74762 -35.613403 -59.396973 -35.613403c-14.135376 0 -27.207947 4.4151 -38.008972 11.822327c-18.824463 -31.194824 -52.99991 -51.993713 -92.00369 -51.993713z" fill-rule="evenodd"/><path fill="#bcce78" d="m690.47955 353.43488c-24.129395 -13.379242 -44.167175 -18.39328 -66.26935 -20.607056c-19.565308 -1.7558594 -39.45233 -1.8232117 -57.960815 4.6458435c-19.367065 5.2370605 -37.87549 11.706146 -54.30597 22.188965c-18.173096 11.5946045 -33.0235 26.408844 -47.92462 48.374786c25.237 14.452423 45.45938 19.645355 66.26941 20.607056c20.857422 3.007904 40.945984 0.87023926 59.0683 -3.5726624c19.367065 -5.23703 36.767944 -12.779297 53.447388 -23.42096c17.924133 -11.435791 33.88208 -25.176819 47.67566 -48.215973z" fill-rule="evenodd"/><path fill="#bcce78" d="m285.5408 226.36412c27.91504 -7.5615387 48.935974 -7.985901 70.94708 -5.268524c19.412445 2.6012115 38.535522 6.894516 54.018127 17.163239c16.743866 9.273666 32.22647 19.542374 44.290955 33.210464c13.344086 15.117737 22.356049 32.599396 28.882233 56.96057c-29.35907 8.349487 -50.620667 8.905212 -70.94708 5.268524c-21.097168 -1.6819153 -39.632294 -8.137085 -55.46216 -16.375275c-16.743866 -9.273651 -30.78244 -20.330353 -43.029724 -34.205536c-13.161285 -14.910645 -23.61728 -31.60431 -28.699432 -56.753464z" fill-rule="evenodd"/></g></svg>