<svg version="1.1" viewBox="0.0 0.0 960.0 720.0" fill="none" stroke="none" stroke-linecap="square" stroke-miterlimit="10" xmlns:xlink="http://www.w3.org/1999/xlink" xmlns="http://www.w3.org/2000/svg"><clipPath id="p.0"><path d="m0 0l960.0 0l0 720.0l-960.0 0l0 -720.0z" clip-rule="nonzero"/></clipPath><g clip-path="url(#p.0)"><path fill="#000000" fill-opacity="0.0" d="m0 0l960.0 0l0 720.0l-960.0 0z" fill-rule="evenodd"/><path fill="#516d5d" d="m698.9286 141.43336c-0.668396 -0.11412048 -1.3901978 -0.102249146 -2.0807495 0.11758423c-58.156433 18.67717 -94.890076 50.63742 -129.73676 82.51454c-39.446228 35.82016 -69.82507 73.3573 -90.293976 114.84921c-40.91327 82.78537 -62.49057 171.10107 -4.336609 256.48038c1.2100525 1.7939453 3.337799 2.8327026 5.677063 3.2320557c6.8506165 1.1696167 15.976959 -2.7435303 12.266632 -7.9364624c-55.613617 -82.0748 -34.116486 -170.20157 5.1667175 -249.98917c19.09262 -39.09256 43.668304 -75.76291 80.62869 -109.94728c33.189392 -31.349518 69.84003 -65.78941 125.16254 -85.389496c2.6798706 -0.8258667 0.3312378 -3.4559174 -2.4535522 -3.931366z" fill-rule="evenodd"/><path fill="#bcce78" d="m720.14233 101.8545c-37.165894 0.64204407 -62.188538 6.138527 -86.611145 14.901642c-21.424133 7.92321 -41.555115 17.37487 -54.03247 31.489037c-14.524109 13.521591 -27.001465 27.635757 -33.5365 44.024307c-7.2280884 18.126724 -8.018738 37.286255 -2.008484 62.292496c39.311707 -0.29777527 64.691956 -5.7368774 86.611145 -14.901642c23.927551 -7.5215607 42.14917 -18.86473 56.178223 -31.144775c14.52417 -13.521576 24.855713 -27.980026 31.489685 -44.616882c7.1291504 -17.878418 10.065613 -36.69368 1.9095459 -62.04418z" fill-rule="evenodd"/><path fill="#8a7165" d="m418.78806 540.59094c-43.746002 0 -82.66458 16.791931 -107.447296 42.842712c-6.353882 -1.2312622 -13.062653 -2.0267944 -19.950989 -2.0267944c-46.880188 0 -84.90085 30.758118 -84.90085 68.67908l540.6399 0c0 -24.100098 -24.154114 -43.638184 -53.94812 -43.638184c-13.776672 0 -26.394653 4.1953735 -35.874146 11.14386c-14.405273 -21.56488 -42.497498 -36.184753 -74.79706 -36.184753c-17.800293 0 -34.262207 4.485962 -47.863647 12.012024c-23.7052 -31.695374 -66.741394 -52.82794 -115.85782 -52.82794z" fill-rule="evenodd"/></g></svg>