<svg version="1.1" viewBox="0.0 0.0 960.0 720.0" fill="none" stroke="none" stroke-linecap="square" stroke-miterlimit="10" xmlns:xlink="http://www.w3.org/1999/xlink" xmlns="http://www.w3.org/2000/svg"><clipPath id="p.0"><path d="m0 0l960.0 0l0 720.0l-960.0 0l0 -720.0z" clip-rule="nonzero"/></clipPath><g clip-path="url(#p.0)"><path fill="#000000" fill-opacity="0.0" d="m0 0l960.0 0l0 720.0l-960.0 0z" fill-rule="evenodd"/><path fill="#516d5d" d="m575.4228 488.13565c-1.2609253 -0.14517212 -2.480713 -0.39349365 -3.4285278 -0.7723999c-79.65015 -32.020996 -108.76587 -65.91333 -134.74771 -99.121155c-29.68927 -37.411713 -42.0943 -72.968506 -33.42447 -107.90671c17.172882 -69.7337 73.16849 -136.77863 262.1916 -175.28918c3.951477 -0.813118 8.67572 -0.80883026 13.088989 -0.30075836c12.924561 1.4879227 24.391418 7.1786575 12.598816 9.463242c-181.21283 37.116463 -237.14667 104.00663 -253.95135 171.16577c-8.497253 32.85367 -5.088043 65.89096 22.076935 101.36636c23.707062 32.29843 50.074707 67.8439 123.91684 99.54697c3.706787 1.4519348 -3.0671997 2.4527283 -8.321106 1.8478699z" fill-rule="evenodd"/><path fill="#8a7165" d="m247.93266 489.4678l0 0c0 -93.93683 104.13872 -170.08768 232.60036 -170.08768l0 0c128.46167 0 232.6004 76.15085 232.6004 170.08768l0 0c0 93.9368 -104.13873 170.08768 -232.6004 170.08768l0 0c-128.46164 0 -232.60036 -76.15088 -232.60036 -170.08768z" fill-rule="evenodd"/></g></svg>