<svg version="1.1" viewBox="0.0 0.0 960.0 720.0" fill="none" stroke="none" stroke-linecap="square" stroke-miterlimit="10" xmlns:xlink="http://www.w3.org/1999/xlink" xmlns="http://www.w3.org/2000/svg"><clipPath id="p.0"><path d="m0 0l960.0 0l0 720.0l-960.0 0l0 -720.0z" clip-rule="nonzero"/></clipPath><g clip-path="url(#p.0)"><path fill="#000000" fill-opacity="0.0" d="m0 0l960.0 0l0 720.0l-960.0 0z" fill-rule="evenodd"/><path fill="#8a7165" d="m422.15756 551.5232c-37.253693 0 -70.396454 14.269592 -91.50119 36.407288c-5.4108887 -1.0463257 -11.124023 -1.7223511 -16.990112 -1.7223511c-39.92276 0 -72.30083 26.13794 -72.30083 58.362793l460.40442 0c0 -20.480042 -20.569458 -37.083313 -45.941772 -37.083313c-11.732117 0 -22.477478 3.5651855 -30.55017 9.469971c-12.267395 -18.325623 -36.19043 -30.74945 -63.696533 -30.74945c-15.158569 0 -29.177368 3.8120728 -40.760254 10.207703c-20.187134 -26.934448 -56.836395 -44.89264 -98.66354 -44.89264z" fill-rule="evenodd"/><path fill="#b5c267" d="m600.969 195.40544l-1.0814819 0.32759094c4.3462524 1.1304016 8.841675 1.7136078 13.32019 1.7136078c2.6986084 0 5.390442 -0.21240234 8.034851 -0.6444092c1.796814 -0.29159546 3.651245 -0.6732025 5.441284 -0.6732025c1.217102 0 2.4104614 0.17640686 3.5360107 0.6732025c1.7798462 0.74160767 3.0952759 2.1384125 4.4886475 3.6144104l11.608154 11.99881c1.3153687 1.3968048 2.7088013 2.8764038 3.5596924 4.6007996c2.010437 4.356018 0.6950073 9.943222 3.4038086 13.806015c3.017334 4.2732086 9.129883 3.8628082 13.232056 7.066818c3.946228 3.2039948 4.875122 9.201599 5.4176025 14.70961c0.7729492 7.5563965 1.4713135 15.364807 -0.07800293 22.842041c-1.8578491 8.629181 -6.810974 16.59961 -6.6550293 25.390808c0.07800293 4.356018 1.2374268 9.039612 -0.92889404 12.736816c-1.864624 3.0924072 -5.397217 4.042816 -8.94342 4.042816c-1.1628418 0 -2.3291016 -0.10079956 -3.437683 -0.26281738c-2.1900635 -0.28079224 -4.4886475 -0.6803894 -6.7126465 -0.6803894c-2.3324585 0 -4.576782 0.43920898 -6.519409 1.9115906c-4.953125 3.8628235 -5.3395996 12.9852295 -10.987732 15.120026c-0.8034668 0.30239868 -1.6239014 0.4212036 -2.4545288 0.4212036c-3.4918823 0 -7.190674 -2.1455994 -10.655457 -2.1455994c-0.88482666 0 -1.7527466 0.14038086 -2.6002808 0.49319458c-1.5459595 0.6552124 -2.7088013 1.8900146 -3.946228 3.1212158c-4.6412354 4.2731934 -10.292725 7.8048096 -16.24939 8.708405c-0.93566895 0.14038086 -1.8849487 0.20880127 -2.8308105 0.20880127c-5.237915 0 -10.475769 -2.1132202 -13.882996 -6.289215c-2.3222656 -2.7936096 -3.7156372 -6.490814 -6.3464966 -8.956818c-3.7156372 -3.6972046 -9.129883 -4.190399 -14.005005 -5.914795c-6.5804443 -2.3832092 -12.306519 -7.311615 -16.018799 -13.557617c-0.62042236 -0.903595 -1.1628418 -2.055603 -2.1663818 -2.4660034c-0.5526123 -0.29159546 -1.1865845 -0.33480835 -1.8408813 -0.33480835c-0.26104736 0 -0.52545166 0.0072021484 -0.789917 0.0072021484c-8.824768 -0.08279419 -15.167847 -10.681213 -14.316895 -20.21402c0.3864746 -3.7799988 1.5458984 -7.8876038 -0.07800293 -11.339996c-1.0848389 -2.1384277 -3.1732178 -3.6972046 -3.946228 -6.080414c-1.4713135 -4.7664185 4.024231 -9.698425 2.4002686 -14.544022c-0.4644165 -1.479599 -1.5493164 -2.4660034 -2.2443237 -3.7799988c-2.7087402 -5.259613 1.00354 -11.667618 4.6412354 -16.189224c13.774475 -17.254822 30.17981 -34.26483 50.99579 -37.634445c9.750244 -1.6416016 19.809082 0 29.63733 -1.80719z" fill-rule="evenodd"/><path fill="#b5c267" d="m589.74176 315.84442l-1.567627 0.32278442c6.299988 1.113739 12.816223 1.688324 19.307861 1.688324c3.9116821 0 7.8135376 -0.20925903 11.646545 -0.6348877c2.6045532 -0.28729248 5.2926025 -0.66326904 7.887268 -0.66326904c1.7642212 0 3.4940186 0.1737976 5.1254883 0.66326904c2.579956 0.73065186 4.4866333 2.1068726 6.5064087 3.5610962l16.82611 11.821899c1.9067383 1.3761902 3.9264526 2.8339844 5.159912 4.532959c2.9141235 4.291748 1.0073853 9.79657 4.933838 13.602417c4.373596 4.210205 13.233887 3.8058472 19.179993 6.962616c5.720154 3.1567383 7.0665894 9.065918 7.8529053 14.492706c1.1204224 7.444977 2.1327515 15.138245 -0.11303711 22.505219c-2.6929932 8.501953 -9.87262 16.354828 -9.646545 25.016418c0.11303711 4.291748 1.7937012 8.906311 -1.3464966 12.548981c-2.7027588 3.046814 -7.8233643 3.9831848 -12.963562 3.9831848c-1.6856079 0 -3.3760376 -0.0993042 -4.982971 -0.25891113c-3.1745605 -0.27667236 -6.5064087 -0.67037964 -9.730103 -0.67037964c-3.3809814 0 -6.6341553 0.43273926 -9.449951 1.8834229c-7.1796265 3.8058472 -7.739868 12.793732 -15.92688 14.897064c-1.1646729 0.29794312 -2.3538818 0.41497803 -3.5578613 0.41497803c-5.0615845 0 -10.422974 -2.1139526 -15.445251 -2.1139526c-1.2825928 0 -2.5406494 0.13833618 -3.769165 0.4859314c-2.2408447 0.64553833 -3.9264526 1.8621216 -5.720093 3.0751648c-6.727539 4.210205 -14.919434 7.689728 -23.55365 8.580017c-1.3563232 0.13830566 -2.7322998 0.205719 -4.1033325 0.205719c-7.592407 0 -15.184814 -2.0820618 -20.123596 -6.196472c-3.366211 -2.752411 -5.3859253 -6.395111 -9.199341 -8.824738c-5.3859253 -3.6427002 -13.233887 -4.128601 -20.300476 -5.8275757c-9.538391 -2.3480835 -17.83844 -7.2037964 -23.219482 -13.357697c-0.899292 -0.8902893 -1.6855469 -2.025299 -3.1401367 -2.429657c-0.8010254 -0.28729248 -1.7199707 -0.3298645 -2.6684265 -0.3298645c-0.37838745 0 -0.76168823 0.0071105957 -1.144989 0.0071105957c-12.791595 -0.081604004 -21.986023 -10.523712 -20.752563 -19.915955c0.5602112 -3.7242737 2.2408447 -7.7713013 -0.11303711 -11.172791c-1.5725403 -2.1068726 -4.5996704 -3.6427002 -5.720093 -5.990753c-2.1327515 -4.6961365 5.83313 -9.55542 3.4792175 -14.329559c-0.6732483 -1.4577942 -2.245758 -2.429657 -3.2531738 -3.7242737c-3.926422 -5.1820374 1.4545898 -11.495575 6.7275085 -15.9505005c19.966309 -17.000366 43.746033 -33.759583 73.91907 -37.0795c14.133179 -1.6173706 28.713562 0 42.959717 -1.7805481z" fill-rule="evenodd"/><path fill="#b5c267" d="m465.34506 101.67845l1.6881409 0.41139984c-6.7843323 1.419548 -13.801514 2.1519241 -20.792236 2.1519241c-4.212433 0 -8.414276 -0.26673126 -12.542053 -0.8092346c-2.8047485 -0.36618805 -5.699463 -0.84539795 -8.493652 -0.84539795c-1.8998108 0 -3.7626038 0.22151947 -5.5195312 0.84539795c-2.7783203 0.9312973 -4.831604 2.6853943 -7.0066223 4.538948l-18.119781 15.068024c-2.0532837 1.7540894 -4.228302 3.6121674 -5.55661 5.7776566c-3.138153 5.4702454 -1.0848389 12.486618 -5.313141 17.337494c-4.7099 5.3662567 -14.251373 4.850891 -20.654663 8.874451c-6.159912 4.0235596 -7.609894 11.555313 -8.4566345 18.472229c-1.2065735 9.489288 -2.2967224 19.295029 0.12173462 28.68486c2.899994 10.836502 10.631622 20.845673 10.388184 31.88562c-0.1217041 5.4702454 -1.9315796 11.351883 1.4500122 15.994797c2.9105835 3.8834229 8.424866 5.076935 13.960266 5.076935c1.815155 0 3.63562 -0.12658691 5.366089 -0.33003235c3.4186401 -0.35263062 7.0066223 -0.8544464 10.478149 -0.8544464c3.6408997 0 7.1441956 0.55155945 10.176514 2.4005737c7.7316284 4.850891 8.3349 16.306763 17.151367 18.98761c1.2542114 0.37976074 2.5348816 0.5289612 3.831421 0.5289612c5.4507446 0 11.224304 -2.694458 16.63272 -2.694458c1.3812256 0 2.735962 0.17633057 4.05896 0.61938477c2.4131775 0.8227844 4.2283325 2.3734436 6.1598816 3.9195862c7.244751 5.3662415 16.066528 9.8012085 25.364563 10.935944c1.4605713 0.17633057 2.9423523 0.26220703 4.4188232 0.26220703c8.176117 0 16.352264 -2.6537476 21.670715 -7.897949c3.625 -3.5081787 5.8000183 -8.151093 9.906616 -11.247894c5.800049 -4.642914 14.251343 -5.262268 21.861206 -7.427765c10.27179 -2.9927979 19.20996 -9.1818695 25.0047 -17.025558c0.9684448 -1.1347351 1.8151855 -2.5814056 3.3815918 -3.0967865c0.86260986 -0.36619568 1.8522339 -0.42044067 2.8735352 -0.42044067c0.40753174 0 0.8203125 0.009048462 1.2330322 0.009048462c13.775085 -0.10398865 23.676453 -13.413391 22.348145 -25.384628c-0.6032715 -4.7469025 -2.413147 -9.905212 0.1217041 -14.240707c1.6934204 -2.6853943 4.953308 -4.642929 6.159912 -7.635742c2.296692 -5.985611 -6.281616 -12.179184 -3.7467651 -18.264267c0.7249756 -1.858078 2.418457 -3.0967865 3.503296 -4.7469025c4.2283325 -6.6049805 -1.5664062 -14.6521 -7.244751 -20.330307c-21.501343 -21.668472 -47.109314 -43.02954 -79.6022 -47.261063c-15.219788 -2.0615082 -30.921143 0 -46.262634 -2.2694702z" fill-rule="evenodd"/><path fill="#b5c267" d="m337.08267 279.46213l1.3241577 0.32278442c-5.3215027 1.1137085 -10.825623 1.688324 -16.309021 1.688324c-3.3041382 0 -6.5999756 -0.20925903 -9.8377075 -0.6349182c-2.2000122 -0.28729248 -4.4705505 -0.66326904 -6.662262 -0.66326904c-1.4901733 0 -2.951294 0.1737976 -4.3294067 0.66326904c-2.1792603 0.7306824 -3.789795 2.1068726 -5.4958496 3.5611267l-14.212799 11.821869c-1.6105652 1.3762207 -3.3165894 2.8339844 -4.3584595 4.532959c-2.4615173 4.2917786 -0.85095215 9.7966 -4.1675415 13.6024475c-3.694336 4.210205 -11.178467 3.8058472 -16.20111 6.962616c-4.8316803 3.1567383 -5.96904 9.065918 -6.6331787 14.492706c-0.94641113 7.444977 -1.8015137 15.138245 0.09547424 22.505188c2.274704 8.501984 8.339218 16.354858 8.14827 25.016418c-0.095458984 4.2917786 -1.5150757 8.906311 1.1373596 12.549011c2.28302 3.046814 6.6082764 3.9831848 10.950165 3.9831848c1.4237671 0 2.8516846 -0.0993042 4.2090454 -0.25891113c2.6815186 -0.27667236 5.4958496 -0.67037964 8.218842 -0.67037964c2.8558655 0 5.60376 0.43273926 7.9822693 1.8834229c6.064514 3.8058472 6.5377197 12.793732 13.4531555 14.897064c0.98376465 0.29794312 1.9883118 0.41497803 3.0052795 0.41497803c4.2754517 0 8.804138 -2.1139526 13.046387 -2.1139526c1.0834045 0 2.1460266 0.13830566 3.1837769 0.4859314c1.8928223 0.64553833 3.3165894 1.8621216 4.831665 3.0751648c5.6826477 4.210205 12.602234 7.689728 19.895447 8.579987c1.1456604 0.13833618 2.3078918 0.205719 3.4660034 0.205719c6.413208 0 12.8263855 -2.0820312 16.998077 -6.1964417c2.8434143 -2.752411 4.5494385 -6.395111 7.770569 -8.824738c4.549408 -3.6427002 11.178467 -4.1286316 17.147491 -5.827606c8.056976 -2.348053 15.067902 -7.2037964 19.61316 -13.357697c0.75961304 -0.8902588 1.4237671 -2.0252686 2.6524658 -2.4296265c0.6765747 -0.28729248 1.4528198 -0.3298645 2.2539368 -0.3298645c0.3196411 0 0.6434021 0.007080078 0.9671631 0.007080078c10.804901 -0.08157349 18.57129 -10.523712 17.529419 -19.915955c-0.47323608 -3.7242432 -1.8928528 -7.7713013 0.095458984 -11.172791c1.3283081 -2.1068726 3.8852844 -3.6426697 4.8316956 -5.990753c1.8014832 -4.696106 -4.9271545 -9.555389 -2.9388733 -14.329529c0.56866455 -1.4577942 1.8969727 -2.429657 2.7479248 -3.7242737c3.3165894 -5.1820374 -1.2286682 -11.495575 -5.6826477 -15.9505005c-16.865234 -17.000397 -36.9516 -33.759583 -62.438324 -37.0795c-11.93808 -1.6174011 -24.253906 0 -36.287476 -1.7805481z" fill-rule="evenodd"/><path fill="#bcce78" d="m365.73666 334.14517c-12.380005 2.9838562 -20.03775 7.2805786 -27.057373 13.009552c-6.12619 5.132202 -11.614258 10.861206 -13.91156 18.141785c-3.0631104 7.1612244 -5.360443 14.441803 -5.360443 22.319122c0 8.71283 2.2973328 17.42566 7.6577454 28.286835c13.145813 -2.9838257 20.931183 -7.2805786 27.057404 -13.009552c7.0195923 -5.132202 11.614227 -11.577301 14.677338 -18.141754c3.0631104 -7.1612244 4.5946655 -14.441803 4.5946655 -22.438507c0 -8.593475 -1.5315552 -17.306274 -7.657776 -28.16748z" fill-rule="evenodd"/><path fill="#bcce78" d="m375.70773 373.11017c-6.9782715 9.233276 -9.398041 16.783325 -10.230743 25.047272c-0.6242676 7.3114624 -0.30804443 14.710083 3.6025085 21.46988c3.2437134 7.1029053 7.154297 13.862732 13.250061 19.772186c6.742279 6.536255 15.208008 11.774475 27.634064 16.893707c7.552765 -9.665955 10.068268 -17.288116 10.230774 -25.047272c1.2944946 -7.8162537 -0.24612427 -15.247314 -3.0280457 -21.902557c-3.2437134 -7.1029053 -7.72876 -13.430054 -13.91687 -19.429047c-6.649933 -6.4467163 -14.541168 -12.117615 -27.541748 -16.804169z" fill-rule="evenodd"/><path fill="#bcce78" d="m607.16486 297.4516c-6.9782715 9.233276 -9.39801 16.783325 -10.230713 25.047272c-0.6243286 7.3114624 -0.30804443 14.7100525 3.602478 21.46988c3.2437134 7.1029053 7.154297 13.862701 13.250061 19.772186c6.7423096 6.536255 15.208008 11.774475 27.634094 16.893677c7.5527344 -9.665924 10.068237 -17.288086 10.230713 -25.047241c1.2945557 -7.8162537 -0.24609375 -15.247314 -3.0280151 -21.902557c-3.2437134 -7.1029053 -7.72876 -13.430054 -13.91687 -19.429047c-6.6499634 -6.4467163 -14.541199 -12.117615 -27.541748 -16.804169z" fill-rule="evenodd"/><path fill="#bcce78" d="m415.89175 284.69397c-4.97818 6.5867004 -6.704376 11.972656 -7.2984314 17.867859c-0.44537354 5.2157593 -0.2197876 10.493683 2.5698853 15.315857c2.3139954 5.066986 5.103668 9.889191 9.4522705 14.104767c4.809784 4.6627197 10.848999 8.399475 19.713501 12.0513c5.3880005 -6.895355 7.182495 -12.332764 7.2984314 -17.867859c0.92349243 -5.5758667 -0.17553711 -10.876923 -2.1600647 -15.624512c-2.3139954 -5.066986 -5.513489 -9.580536 -9.9279785 -13.860016c-4.7438965 -4.598816 -10.373322 -8.644226 -19.647614 -11.987396z" fill-rule="evenodd"/><path fill="#bcce78" d="m505.24924 207.17917c-8.81604 2.1246338 -14.269257 5.1840973 -19.268036 9.263382c-4.3625793 3.6543732 -8.270721 7.733658 -9.906677 12.917755c-2.181305 5.099121 -3.8172607 10.283218 -3.8172607 15.892242c0 6.2039185 1.6359558 12.407852 5.4532166 20.141495c9.361359 -2.1246338 14.905457 -5.184082 19.268036 -9.263397c4.9987793 -3.654358 8.270721 -8.243561 10.451996 -12.91774c2.1812744 -5.099121 3.2719421 -10.283218 3.2719421 -15.977219c0 -6.1189423 -1.0906677 -12.322861 -5.4532166 -20.056519z" fill-rule="evenodd"/><path fill="#bcce78" d="m500.0438 333.43564c-6.978302 9.233276 -9.398041 16.783325 -10.230774 25.047272c-0.6242676 7.3114624 -0.30804443 14.7100525 3.6025085 21.469849c3.243744 7.102936 7.154297 13.862732 13.250061 19.772217c6.7423096 6.5362244 15.208008 11.774475 27.634094 16.893677c7.5527344 -9.665924 10.068237 -17.288086 10.230713 -25.047241c1.2945557 -7.8162537 -0.24609375 -15.247314 -3.0280151 -21.902557c-3.2437134 -7.102936 -7.72876 -13.430054 -13.91687 -19.429077c-6.6499634 -6.446686 -14.541199 -12.117584 -27.541718 -16.804138z" fill-rule="evenodd"/><path fill="#bcce78" d="m413.39633 161.09352c-12.859589 -0.2591858 -21.657562 1.923172 -30.338562 5.634781c-7.6216736 3.3657532 -14.838837 7.4622498 -19.540375 13.843552c-5.392334 6.0747833 -10.093872 12.456085 -12.805023 19.985077c-2.9987183 8.327515 -3.8016968 17.232346 -2.4164124 28.960297c13.591522 0.45161438 22.511475 -1.6986694 30.338562 -5.634796c8.475586 -3.1412506 15.085327 -8.146713 20.272278 -13.651108c5.3923645 -6.0747986 9.361969 -12.648529 12.114227 -20.291595c2.9576416 -8.21344 4.492523 -16.925842 2.3753052 -28.846207z" fill-rule="evenodd"/><path fill="#bcce78" d="m426.13382 333.43564c-6.978302 9.233276 -9.398071 16.783325 -10.230774 25.047272c-0.6242676 7.3114624 -0.30804443 14.7100525 3.6025085 21.469849c3.243744 7.102936 7.154297 13.862732 13.250061 19.772217c6.742279 6.5362244 15.208008 11.774475 27.634064 16.893677c7.552765 -9.665924 10.068268 -17.288086 10.230774 -25.047241c1.2944946 -7.8162537 -0.24612427 -15.247314 -3.0280457 -21.902557c-3.2437134 -7.102936 -7.72876 -13.430054 -13.91687 -19.429077c-6.649933 -6.446686 -14.541168 -12.117584 -27.541718 -16.804138z" fill-rule="evenodd"/><path fill="#bcce78" d="m592.2228 345.918c-8.81604 2.1246338 -14.269287 5.1841125 -19.268066 9.263397c-4.362549 3.654358 -8.270691 7.733673 -9.906677 12.917755c-2.1812744 5.099121 -3.8172607 10.283203 -3.8172607 15.892242c0 6.2039185 1.6359863 12.407837 5.453247 20.14151c9.361328 -2.1246338 14.905457 -5.1841125 19.268005 -9.263397c4.9987793 -3.654358 8.270752 -8.243561 10.452026 -12.917755c2.1812744 -5.099121 3.2719116 -10.283203 3.2719116 -15.977234c0 -6.118927 -1.0906372 -12.322845 -5.453186 -20.056519z" fill-rule="evenodd"/><path fill="#bcce78" d="m337.67017 250.47586c-8.8160095 2.1246338 -14.269226 5.1841125 -19.268005 9.263397c-4.3625793 3.654358 -8.270721 7.7336426 -9.906677 12.917755c-2.181305 5.099121 -3.8172607 10.283203 -3.8172607 15.892242c0 6.2039185 1.6359558 12.407837 5.4532166 20.14148c9.361359 -2.1246033 14.905457 -5.184082 19.268036 -9.263367c4.9987793 -3.6543884 8.270691 -8.243591 10.451996 -12.917755c2.1812744 -5.099121 3.2719116 -10.283234 3.2719116 -15.977234c0 -6.118927 -1.0906372 -12.322845 -5.4532166 -20.056519z" fill-rule="evenodd"/><path fill="#bcce78" d="m447.4505 195.40633c-12.380035 2.983841 -20.03778 7.2805786 -27.057373 13.009552c-6.12619 5.1322174 -11.614258 10.861191 -13.911591 18.14177c-3.0630798 7.1612244 -5.3604126 14.441803 -5.3604126 22.319153c0 8.71283 2.2973328 17.425629 7.6577454 28.286835c13.145813 -2.9838562 20.931183 -7.2805786 27.057373 -13.009552c7.019623 -5.1322327 11.614258 -11.577316 14.677368 -18.14177c3.0631104 -7.1612244 4.594635 -14.441803 4.594635 -22.438507c0 -8.59346 -1.5315247 -17.30629 -7.6577454 -28.16748z" fill-rule="evenodd"/><path fill="#8a7165" d="m559.588 315.52692c-2.4553833 25.305359 -8.567017 50.399994 -18.356384 74.450165c-4.9000244 12.130463 -10.529175 23.628723 -17.134033 35.127014l-10.03595 17.151215c-3.6670227 5.854492 -6.604889 12.130432 -9.542755 17.984955c-5.382538 12.130432 -10.03598 24.05017 -16.394226 35.346893c-6.1223755 11.287537 -13.467072 22.996521 -18.109802 36.382202c-4.9000244 13.38562 -6.122345 27.394287 -5.146637 40.99066c0.9864502 13.596313 3.4310913 26.77124 5.875763 39.52472l24.47876 -3.9763184c-3.4311218 -12.3411255 -6.6156006 -24.462463 -8.084534 -36.592896c-1.4689331 -11.919739 -1.4689331 -23.839417 1.9621582 -35.346863c2.9378662 -11.498291 9.060242 -23.207275 14.689392 -35.127014c2.6912842 -6.065216 5.382538 -12.341187 7.580597 -18.617126c2.444641 -6.2759705 4.6534424 -12.332031 6.6048584 -18.397247c2.2088013 -5.854492 4.9000244 -11.71817 7.8379517 -17.361938l8.813599 -17.774231c5.8650513 -12.130432 11.011719 -24.471619 14.925293 -37.014343c8.320435 -25.094666 12.973877 -50.61075 13.45636 -76.53912l-3.4204102 -0.21072388z" fill-rule="evenodd"/><path fill="#8a7165" d="m541.71405 297.96228c-5.3825684 25.305359 -10.271851 50.812286 -15.901001 75.90695c-5.6291504 25.305359 -12.234009 50.18927 -20.554443 74.66089c-3.9243164 12.341187 -8.567047 24.260925 -13.467072 36.382202c-4.8893127 11.928894 -10.03598 23.848602 -16.147614 35.557587c-3.1845093 6.0652466 -5.875763 11.919739 -8.320435 18.818726c-2.2087708 6.4866943 -3.9243164 13.807068 -4.4067993 20.916748c-0.73983765 14.008667 1.951416 28.438782 7.0980835 41.61371l22.752472 -7.3204346c-5.382538 -11.085999 -8.320404 -22.584229 -8.320404 -34.091675c0 -5.643799 0.9864197 -11.287537 2.4553833 -16.931335c1.4689331 -5.8636475 3.9135742 -11.507446 6.358246 -17.572632c4.900055 -11.919739 9.789368 -24.462494 14.196167 -37.014404c4.1602173 -12.341156 7.82724 -25.094635 11.258331 -37.63736c6.3582153 -25.516113 11.504883 -50.821472 15.6651 -76.337555c4.1602173 -25.506927 7.3339844 -51.02304 10.518494 -76.74069l-3.1845093 -0.21072388z" fill-rule="evenodd"/><path fill="#8a7165" d="m418.1271 306.53845l-3.1845093 0.62298584c3.9136047 20.91681 10.518463 41.613678 19.08551 61.68756c4.160187 9.830811 9.060242 19.872314 14.196167 29.492401c4.900055 9.620056 9.789368 19.029419 11.998138 28.860199c2.1980286 9.409363 2.1980286 19.441711 1.4689331 29.904694l-1.4689331 31.782867l-2.9378967 63.364197l24.221436 0.63220215l-1.9514465 -63.57495l-1.2223206 -31.792023c-0.4932251 -10.875275 -1.2223206 -21.952087 -4.6534424 -33.038086c-3.4310913 -10.875244 -9.542725 -20.706055 -15.418488 -30.115387c-5.6291504 -9.409363 -11.504913 -18.397247 -16.394226 -28.228058c-10.03598 -19.029419 -18.109802 -39.112457 -23.738922 -59.598602z" fill-rule="evenodd"/><path fill="#8a7165" d="m361.33878 367.18542l-2.9378662 1.0444641c7.5913086 18.195679 22.269989 34.293243 41.612823 45.379242c9.542725 5.6437683 19.578705 9.83078 29.12146 14.640839c9.04953 4.599304 18.356384 9.620056 25.207855 15.685272c1.9514465 1.255188 3.4203796 2.7119446 4.40683 4.3885803c1.2223206 1.2552185 1.704834 2.9318542 2.1980286 4.388611c0.4932251 3.1425476 0.24661255 7.531128 0 12.55188l-1.2223206 28.438782l-2.4446716 57.088226l23.985565 0l-2.6912842 -57.088226l-1.2330627 -28.438782l-0.23587036 -7.320404c-0.24661255 -2.510376 -0.73983765 -5.4330444 -1.4689331 -8.364868c-0.9864502 -2.9318542 -2.4553833 -6.0652466 -4.6534424 -8.364899c-2.198059 -2.299652 -4.40683 -4.3885803 -6.851471 -6.27594c-9.306854 -6.6882324 -19.825348 -11.287567 -29.861298 -15.474579c-10.03598 -4.1778564 -20.30783 -7.7326965 -29.614685 -12.130463c-18.838898 -8.9878845 -34.010773 -22.996552 -43.317657 -40.147736z" fill-rule="evenodd"/><path fill="#8a7165" d="m482.49493 241.2827c-11.504913 28.237198 -4.9000244 58.9756 -2.6912537 88.880295c2.6912537 40.779938 -3.4311218 81.761444 -10.775818 122.33981c-1.7048035 10.453796 -3.6669922 20.907623 -6.358246 31.159851c-2.4446716 8.777191 -5.6291504 17.774231 -6.368988 26.762115c-1.2223206 11.296722 0.24661255 22.795013 0.73983765 34.293304c0.975708 18.617126 -1.2223206 37.225037 -0.4932251 55.63147c0.4932251 13.174927 2.6912842 26.771301 7.837921 38.69098c9.885864 1.2277222 19.943268 1.7224731 29.743347 1.7224731c1.8442078 0 3.6777039 -0.018310547 5.5004883 -0.054992676c-2.9378662 -14.21936 -4.6534424 -28.228027 -4.170929 -42.658142c1.2330627 -16.10675 -11.987396 -31.370544 -8.073822 -47.2666c4.6534424 -16.729736 1.7155762 -34.503967 0 -51.233734c-0.72909546 -10.2430725 0 -20.49533 0.9864502 -30.52768c2.6912842 -31.159882 5.8650513 -62.10901 8.556305 -93.05817c1.2330627 -13.385651 2.4553833 -26.77127 1.9621582 -40.15692c-1.2223206 -29.483215 -11.751526 -59.809357 -2.1980286 -88.24811l-14.1961975 -6.275955z" fill-rule="evenodd"/><path fill="#8a7165" d="m489.10007 336.85733l0 0c0.24661255 4.8100586 0.7398071 9.409363 1.2223206 14.430115c0.24661255 4.810028 0.24661255 9.409363 0 14.430115c-0.48251343 5.020752 -0.48251343 10.252258 -0.975708 14.8515625c-0.9757385 5.020752 -2.6912842 9.620056 -3.9136047 14.430084c-1.2223206 4.388611 -2.2087708 9.198639 -3.4310913 13.587219c-1.2223511 4.3977356 -2.4446716 8.786316 -3.6669922 13.5963745c-1.2223511 4.599304 -3.4311218 9.409332 -4.40683 14.21936l-2.9378662 14.640839c-0.9757385 4.810028 -1.4689636 9.830811 -2.4446716 14.430115c-0.9864502 4.810028 -1.4689331 9.409332 -2.6912842 14.21936c-0.7398071 2.2996826 -0.9864197 4.5993347 -1.7155457 6.898987c-0.4932251 2.510376 -1.4689331 4.810028 -1.9621582 7.10968c-1.2223206 4.810028 -2.1980286 10.041534 -2.444641 14.8515625c-0.4932251 5.0207825 0 10.032379 0 14.631683c0 5.020752 -0.729126 9.8307495 -0.729126 14.640808c0 5.020752 1.2223206 9.830811 1.2223206 14.430115c0.23590088 4.8100586 -0.49319458 9.620056 -0.24658203 14.640808c0.24658203 4.388611 0.975708 8.575623 1.2223206 13.174927c0.24661255 4.1778564 0.4932251 8.575623 0.975708 12.964172c0.4932251 4.1870728 1.4689331 8.575623 1.9621582 12.753479c0.729126 4.1870117 0.9757385 8.786316 1.7155457 12.973389l1.9514465 12.753418c0 0.39398193 0.4932251 0.6047363 1.007904 0.6047363c0.5789795 0 1.2008667 -0.26574707 1.2008667 -0.8154297c0 -4.8100586 -0.4932251 -9.409363 -1.2223206 -14.430115c-0.24661255 -4.8100586 -1.2330627 -9.409363 -1.7155457 -14.21936c-0.73983765 -4.599304 -0.4932251 -9.409363 -0.73983765 -14.219421c-0.24661255 -4.8099976 -0.975708 -9.409302 -0.975708 -14.21936c-0.24661255 -5.020752 -0.24661255 -9.620056 -0.4932251 -14.640808c0 -5.020813 0.24661255 -9.620117 0.24661255 -14.640869c0 -5.0115967 -0.24661255 -9.620056 0 -14.631653c0 -5.020752 0.7398071 -9.620056 0.975708 -14.640808c0.24661255 -4.5993347 0 -9.620087 1.2330627 -14.430145c1.2223206 -4.599304 3.9135742 -8.786316 5.382538 -13.596344c1.2223206 -4.599304 2.1980286 -9.620087 3.4203796 -14.219391c1.2223206 -4.810028 2.4553833 -9.409332 3.4310913 -14.430115c0.975708 -4.810028 1.7155457 -9.409332 2.4446716 -14.21936c0.7398071 -4.599304 1.2223206 -9.409363 1.7155457 -14.008667c0.72909546 -4.810028 1.951416 -9.409332 2.9378662 -14.219391c0.729126 -4.6084595 0.975708 -9.409332 2.198059 -14.017792c1.2223206 -5.2223206 2.2087708 -10.453827 2.9378662 -15.685303c0.73983765 -5.2223206 1.2223206 -10.664551 1.2223206 -15.886871c0 -5.854492 -0.975708 -11.296692 -1.7155457 -16.729767c-0.72909546 -6.065216 -1.4582214 -11.507416 -2.1980286 -17.361938z" fill-rule="evenodd"/><path fill="#8a7165" d="m511.3067 475.89c-0.08578491 0 -0.15011597 0.018310547 -0.1822815 0.045806885c-1.704834 2.510376 -2.9378967 5.020752 -4.1602173 7.320404c-1.2223206 2.510376 -1.9514465 5.231476 -3.173767 7.7326965c-1.2330627 2.5104065 -3.1844788 4.60849 -4.40683 7.3204346c-1.2223206 2.510376 -2.4553833 4.810028 -3.6777039 7.320404c-1.4689331 2.299652 -2.6912537 4.810028 -4.1602173 7.531128c-1.7048035 2.510376 -3.4203796 4.599304 -4.6427 7.3204346c-1.2330322 2.510376 -2.6912537 5.020752 -3.9243164 7.5219727c-1.704834 2.7211304 -2.9271545 5.020752 -4.1602173 7.531128c-1.2223206 2.7211304 -1.2223206 5.643799 -1.951416 8.364868c-0.73983765 2.9318848 -2.2087708 5.643799 -2.2087708 8.364929c-0.23590088 2.9318237 0.24658203 5.854492 0.24658203 8.364868c0 2.9318237 0.24661255 5.643738 0.24661255 8.364868c0.4932251 2.7211304 0.729126 5.652954 0.9757385 8.154175c0.24661255 2.7210693 1.2223206 5.2314453 1.4689331 8.16333c0.73983765 2.5012207 0.73983765 5.4330444 1.2223206 8.364868c0.73983765 2.9226685 1.7155457 5.643738 2.6912842 8.566406c0.9864197 3.1425781 2.2087708 5.4422607 2.2087708 7.9526367c0.4932251 2.2996216 0.4932251 4.8099976 0.4932251 7.5219727c0 2.9318237 0.4824829 6.27594 0.72909546 9.620056c0 3.3532715 0.729126 6.908142 1.9621582 10.462952c-0.9864502 -3.142517 -1.2330322 -6.0651855 -1.4689331 -8.786316c0 -2.9226685 0.23590088 -5.643799 0.72909546 -8.154175c0.73983765 -2.9318237 0.4932251 -5.4421997 0.73983765 -8.154114c0.23590088 -2.510376 0.729126 -5.2315063 0.23590088 -8.154175c-0.48251343 -2.510376 -1.4689331 -5.2315063 -1.704834 -7.7418823c0 -2.7210693 -0.4932251 -5.2314453 -0.4932251 -7.9434204c0 -2.7210693 0.975708 -5.652954 0.729126 -8.575623l-0.729126 -8.364868c-0.24661255 -2.510376 -0.72909546 -5.4421997 -1.2223206 -8.154114c-0.24661255 -2.510437 -0.73983765 -5.4422607 -1.2223511 -7.9526367c-0.24658203 -2.711914 0 -5.22229 0 -7.9434204c0 -2.510376 0.48251343 -5.020752 0.9757385 -7.3204346c0.73983765 -2.2996216 0.975708 -5.020752 2.198059 -7.3203735c0.9864197 -2.2996826 2.9378662 -4.599304 4.170929 -7.10968c1.2223206 -2.510437 1.951416 -5.2315063 3.173767 -7.732727c1.2223206 -2.7211304 3.6777039 -4.8100586 4.9000244 -7.118866c1.2223206 -2.299652 2.198059 -4.599304 2.9378967 -6.6882324c0.975708 -2.510376 2.444641 -4.599304 3.4203796 -6.8989563c0.9864197 -2.299652 1.4689331 -4.599304 2.444641 -7.1097107c0.9864502 -2.299652 2.2087708 -4.3977356 3.4310913 -6.6973877l2.6912842 -7.10968c0.2144165 -0.35733032 -1.0400696 -0.8795471 -1.5332642 -0.8795471zm-24.403717 161.91034c0 0.10083008 0.053619385 0.15576172 0.08578491 0.15576172c0.032165527 0 0.032165527 -0.05493164 -0.08578491 -0.15576172z" fill-rule="evenodd"/><path fill="#779a6e" d="m379.69635 124.37762c-0.729126 0.2107315 -2.198059 0.62301636 -2.9378967 0.83374023l0 0.21072388c0.9864502 -0.21072388 2.2087708 -0.42144775 2.9378967 -1.0444641z" fill-rule="evenodd"/></g></svg>